<mxfile host="app.diagrams.net" modified="2022-12-02T09:13:29.123Z" agent="5.0 (Windows NT 10.0; Win64; x64) AppleWebKit/537.36 (KHTML, like Gecko) Chrome/108.0.0.0 Safari/537.36" etag="CFOIrrrWM2Bh974tzKIK" version="16.0.3" type="github">
  <diagram id="C5RBs43oDa-KdzZeNtuy" name="Page-1">
    <mxGraphModel dx="1422" dy="762" grid="1" gridSize="10" guides="1" tooltips="1" connect="1" arrows="1" fold="1" page="1" pageScale="1" pageWidth="827" pageHeight="1169" math="0" shadow="0">
      <root>
        <mxCell id="WIyWlLk6GJQsqaUBKTNV-0" />
        <mxCell id="WIyWlLk6GJQsqaUBKTNV-1" parent="WIyWlLk6GJQsqaUBKTNV-0" />
        <mxCell id="HcKDsJ7LAGcpTKOKTeUX-26" value="&lt;div&gt;&lt;b&gt;&lt;font style=&quot;font-size: 17px&quot; color=&quot;#cc6600&quot;&gt;同一事务中&lt;/font&gt;&lt;/b&gt;&lt;/div&gt;" style="rounded=0;whiteSpace=wrap;html=1;fillColor=#ffe6cc;strokeColor=#d79b00;align=left;" vertex="1" parent="WIyWlLk6GJQsqaUBKTNV-1">
          <mxGeometry x="230" y="420" width="210" height="220" as="geometry" />
        </mxCell>
        <mxCell id="HcKDsJ7LAGcpTKOKTeUX-7" value="" style="edgeStyle=orthogonalEdgeStyle;rounded=0;orthogonalLoop=1;jettySize=auto;html=1;" edge="1" parent="WIyWlLk6GJQsqaUBKTNV-1" source="HcKDsJ7LAGcpTKOKTeUX-0" target="HcKDsJ7LAGcpTKOKTeUX-6">
          <mxGeometry relative="1" as="geometry" />
        </mxCell>
        <mxCell id="HcKDsJ7LAGcpTKOKTeUX-0" value="上传报告" style="rounded=0;whiteSpace=wrap;html=1;fillColor=#008a00;fontColor=#ffffff;strokeColor=#005700;" vertex="1" parent="WIyWlLk6GJQsqaUBKTNV-1">
          <mxGeometry x="270" y="50" width="120" height="60" as="geometry" />
        </mxCell>
        <mxCell id="HcKDsJ7LAGcpTKOKTeUX-2" style="edgeStyle=orthogonalEdgeStyle;rounded=0;orthogonalLoop=1;jettySize=auto;html=1;entryX=0;entryY=0.5;entryDx=0;entryDy=0;" edge="1" parent="WIyWlLk6GJQsqaUBKTNV-1" source="HcKDsJ7LAGcpTKOKTeUX-1" target="HcKDsJ7LAGcpTKOKTeUX-0">
          <mxGeometry relative="1" as="geometry">
            <Array as="points">
              <mxPoint x="240" y="80" />
              <mxPoint x="240" y="80" />
            </Array>
          </mxGeometry>
        </mxCell>
        <mxCell id="HcKDsJ7LAGcpTKOKTeUX-1" value="member" style="shape=umlActor;verticalLabelPosition=bottom;verticalAlign=top;html=1;outlineConnect=0;" vertex="1" parent="WIyWlLk6GJQsqaUBKTNV-1">
          <mxGeometry x="170" y="50" width="30" height="60" as="geometry" />
        </mxCell>
        <object label="" id="HcKDsJ7LAGcpTKOKTeUX-10">
          <mxCell style="edgeStyle=orthogonalEdgeStyle;rounded=0;orthogonalLoop=1;jettySize=auto;html=1;startArrow=none;entryX=0;entryY=0.5;entryDx=0;entryDy=0;" edge="1" parent="WIyWlLk6GJQsqaUBKTNV-1" source="HcKDsJ7LAGcpTKOKTeUX-12" target="HcKDsJ7LAGcpTKOKTeUX-11">
            <mxGeometry relative="1" as="geometry">
              <mxPoint x="430" y="350" as="targetPoint" />
            </mxGeometry>
          </mxCell>
        </object>
        <mxCell id="HcKDsJ7LAGcpTKOKTeUX-15" style="edgeStyle=orthogonalEdgeStyle;rounded=0;orthogonalLoop=1;jettySize=auto;html=1;exitX=0.5;exitY=1;exitDx=0;exitDy=0;" edge="1" parent="WIyWlLk6GJQsqaUBKTNV-1" source="HcKDsJ7LAGcpTKOKTeUX-6">
          <mxGeometry relative="1" as="geometry">
            <mxPoint x="330" y="440" as="targetPoint" />
          </mxGeometry>
        </mxCell>
        <mxCell id="HcKDsJ7LAGcpTKOKTeUX-6" value="是否是检查检验报告" style="rhombus;whiteSpace=wrap;html=1;rounded=0;fillColor=#1ba1e2;fontColor=#ffffff;strokeColor=#006EAF;" vertex="1" parent="WIyWlLk6GJQsqaUBKTNV-1">
          <mxGeometry x="290" y="310" width="80" height="80" as="geometry" />
        </mxCell>
        <mxCell id="HcKDsJ7LAGcpTKOKTeUX-38" style="edgeStyle=orthogonalEdgeStyle;rounded=0;orthogonalLoop=1;jettySize=auto;html=1;exitX=1;exitY=0.5;exitDx=0;exitDy=0;entryX=1;entryY=0.5;entryDx=0;entryDy=0;fontSize=12;fontColor=#000000;" edge="1" parent="WIyWlLk6GJQsqaUBKTNV-1" source="HcKDsJ7LAGcpTKOKTeUX-11" target="HcKDsJ7LAGcpTKOKTeUX-31">
          <mxGeometry relative="1" as="geometry">
            <Array as="points">
              <mxPoint x="590" y="350" />
              <mxPoint x="590" y="880" />
            </Array>
          </mxGeometry>
        </mxCell>
        <mxCell id="HcKDsJ7LAGcpTKOKTeUX-11" value="走上传体检报告老接口" style="rounded=1;whiteSpace=wrap;html=1;fillColor=#d0cee2;strokeColor=#56517e;align=left;" vertex="1" parent="WIyWlLk6GJQsqaUBKTNV-1">
          <mxGeometry x="450" y="332.5" width="100" height="35" as="geometry" />
        </mxCell>
        <mxCell id="HcKDsJ7LAGcpTKOKTeUX-12" value="F" style="text;html=1;strokeColor=none;fillColor=none;align=center;verticalAlign=middle;whiteSpace=wrap;rounded=0;" vertex="1" parent="WIyWlLk6GJQsqaUBKTNV-1">
          <mxGeometry x="390" y="340" width="40" height="20" as="geometry" />
        </mxCell>
        <mxCell id="HcKDsJ7LAGcpTKOKTeUX-13" value="" style="edgeStyle=orthogonalEdgeStyle;rounded=0;orthogonalLoop=1;jettySize=auto;html=1;endArrow=none;" edge="1" parent="WIyWlLk6GJQsqaUBKTNV-1" source="HcKDsJ7LAGcpTKOKTeUX-6" target="HcKDsJ7LAGcpTKOKTeUX-12">
          <mxGeometry relative="1" as="geometry">
            <mxPoint x="430" y="350" as="targetPoint" />
            <mxPoint x="370" y="350" as="sourcePoint" />
          </mxGeometry>
        </mxCell>
        <mxCell id="HcKDsJ7LAGcpTKOKTeUX-18" style="edgeStyle=orthogonalEdgeStyle;rounded=0;orthogonalLoop=1;jettySize=auto;html=1;exitX=1;exitY=0.5;exitDx=0;exitDy=0;" edge="1" parent="WIyWlLk6GJQsqaUBKTNV-1" source="HcKDsJ7LAGcpTKOKTeUX-17">
          <mxGeometry relative="1" as="geometry">
            <mxPoint x="440" y="190" as="targetPoint" />
          </mxGeometry>
        </mxCell>
        <mxCell id="HcKDsJ7LAGcpTKOKTeUX-17" value="参数效验" style="rhombus;whiteSpace=wrap;html=1;fillColor=#1ba1e2;fontColor=#ffffff;strokeColor=#006EAF;" vertex="1" parent="WIyWlLk6GJQsqaUBKTNV-1">
          <mxGeometry x="290" y="150" width="80" height="80" as="geometry" />
        </mxCell>
        <mxCell id="HcKDsJ7LAGcpTKOKTeUX-34" style="edgeStyle=orthogonalEdgeStyle;rounded=0;orthogonalLoop=1;jettySize=auto;html=1;exitX=1;exitY=0.5;exitDx=0;exitDy=0;entryX=1;entryY=0.5;entryDx=0;entryDy=0;fontSize=12;fontColor=#000000;" edge="1" parent="WIyWlLk6GJQsqaUBKTNV-1" source="HcKDsJ7LAGcpTKOKTeUX-19" target="HcKDsJ7LAGcpTKOKTeUX-31">
          <mxGeometry relative="1" as="geometry" />
        </mxCell>
        <mxCell id="HcKDsJ7LAGcpTKOKTeUX-19" value="参数效验失败" style="rounded=1;whiteSpace=wrap;html=1;fillColor=#a20025;fontColor=#ffffff;strokeColor=#6F0000;" vertex="1" parent="WIyWlLk6GJQsqaUBKTNV-1">
          <mxGeometry x="450" y="160" width="120" height="60" as="geometry" />
        </mxCell>
        <mxCell id="HcKDsJ7LAGcpTKOKTeUX-20" value="T" style="text;html=1;strokeColor=none;fillColor=none;align=center;verticalAlign=middle;whiteSpace=wrap;rounded=0;" vertex="1" parent="WIyWlLk6GJQsqaUBKTNV-1">
          <mxGeometry x="310" y="250" width="60" height="30" as="geometry" />
        </mxCell>
        <mxCell id="HcKDsJ7LAGcpTKOKTeUX-21" value="F" style="text;html=1;strokeColor=none;fillColor=none;align=center;verticalAlign=middle;whiteSpace=wrap;rounded=0;" vertex="1" parent="WIyWlLk6GJQsqaUBKTNV-1">
          <mxGeometry x="380" y="170" width="60" height="30" as="geometry" />
        </mxCell>
        <mxCell id="HcKDsJ7LAGcpTKOKTeUX-23" style="edgeStyle=orthogonalEdgeStyle;rounded=0;orthogonalLoop=1;jettySize=auto;html=1;exitX=0.5;exitY=1;exitDx=0;exitDy=0;entryX=0.5;entryY=0;entryDx=0;entryDy=0;" edge="1" parent="WIyWlLk6GJQsqaUBKTNV-1" source="HcKDsJ7LAGcpTKOKTeUX-22" target="HcKDsJ7LAGcpTKOKTeUX-24">
          <mxGeometry relative="1" as="geometry">
            <mxPoint x="330" y="560" as="targetPoint" />
          </mxGeometry>
        </mxCell>
        <mxCell id="HcKDsJ7LAGcpTKOKTeUX-22" value="添加一条检查检验报告上传记录，关联用户" style="rounded=0;whiteSpace=wrap;html=1;fillColor=#b1ddf0;strokeColor=#10739e;" vertex="1" parent="WIyWlLk6GJQsqaUBKTNV-1">
          <mxGeometry x="270" y="440" width="120" height="60" as="geometry" />
        </mxCell>
        <mxCell id="HcKDsJ7LAGcpTKOKTeUX-30" style="edgeStyle=orthogonalEdgeStyle;rounded=0;orthogonalLoop=1;jettySize=auto;html=1;exitX=0.5;exitY=1;exitDx=0;exitDy=0;fontSize=17;fontColor=#CC6600;entryX=0.5;entryY=0;entryDx=0;entryDy=0;" edge="1" parent="WIyWlLk6GJQsqaUBKTNV-1" source="HcKDsJ7LAGcpTKOKTeUX-24" target="HcKDsJ7LAGcpTKOKTeUX-35">
          <mxGeometry relative="1" as="geometry">
            <mxPoint x="330" y="680" as="targetPoint" />
          </mxGeometry>
        </mxCell>
        <mxCell id="HcKDsJ7LAGcpTKOKTeUX-24" value="保存上传的所有图片，并关联到当前上传记录" style="rounded=0;whiteSpace=wrap;html=1;fillColor=#b1ddf0;strokeColor=#10739e;" vertex="1" parent="WIyWlLk6GJQsqaUBKTNV-1">
          <mxGeometry x="270" y="560" width="120" height="60" as="geometry" />
        </mxCell>
        <mxCell id="HcKDsJ7LAGcpTKOKTeUX-25" value="T" style="text;html=1;strokeColor=none;fillColor=none;align=center;verticalAlign=middle;whiteSpace=wrap;rounded=0;" vertex="1" parent="WIyWlLk6GJQsqaUBKTNV-1">
          <mxGeometry x="310" y="400" width="60" height="30" as="geometry" />
        </mxCell>
        <mxCell id="HcKDsJ7LAGcpTKOKTeUX-31" value="&lt;font color=&quot;#000000&quot;&gt;结束&lt;/font&gt;" style="rounded=0;whiteSpace=wrap;html=1;fontSize=17;fillColor=#008a00;strokeColor=#005700;fontColor=#ffffff;" vertex="1" parent="WIyWlLk6GJQsqaUBKTNV-1">
          <mxGeometry x="270" y="850" width="120" height="60" as="geometry" />
        </mxCell>
        <mxCell id="HcKDsJ7LAGcpTKOKTeUX-36" style="edgeStyle=orthogonalEdgeStyle;rounded=0;orthogonalLoop=1;jettySize=auto;html=1;entryX=0.5;entryY=0;entryDx=0;entryDy=0;fontSize=12;fontColor=#000000;" edge="1" parent="WIyWlLk6GJQsqaUBKTNV-1" source="HcKDsJ7LAGcpTKOKTeUX-35" target="HcKDsJ7LAGcpTKOKTeUX-31">
          <mxGeometry relative="1" as="geometry" />
        </mxCell>
        <mxCell id="HcKDsJ7LAGcpTKOKTeUX-35" value="响应前端报告ID" style="rounded=0;whiteSpace=wrap;html=1;fontSize=12;fontColor=#000000;fillColor=#e3c800;strokeColor=#B09500;" vertex="1" parent="WIyWlLk6GJQsqaUBKTNV-1">
          <mxGeometry x="270" y="710" width="120" height="60" as="geometry" />
        </mxCell>
      </root>
    </mxGraphModel>
  </diagram>
</mxfile>
